                                                                        S      1
,,10Hbase_plate,10Hbase_plate,7Hunknown,7Hunknown,32,38,7,99,15,,1.,2,2HG      1
MM,1,0.08,15H20161230.161243,0.01,10000.,7Hunknown,7Hunknown,11,0,;     G      2
     186       1                                                00000000D      1
     186            -177       1       0                               0D      2
     514       2                                                00010000D      3
     514                       2       1                               0D      4
     510       4                                                00010000D      5
     510            -177       1       1                               0D      6
     510       5                                                00010000D      7
     510            -177       1       1                               0D      8
     510       6                                                00010000D      9
     510            -177       1       1                               0D     10
     510       7                                                00010000D     11
     510            -177       1       1                               0D     12
     510       8                                                00010000D     13
     510            -177       1       1                               0D     14
     510       9                                                00010000D     15
     510            -177       1       1                               0D     16
     510      10                                                00010000D     17
     510            -177       1       1                               0D     18
     510      11                                                00010000D     19
     510            -177       1       1                               0D     20
     510      12                                                00010000D     21
     510            -177       1       1                               0D     22
     510      13                                                00010000D     23
     510            -177       1       1                               0D     24
     510      14                                                00010000D     25
     510            -177       1       1                               0D     26
     510      15                                                00010000D     27
     510            -177       1       1                               0D     28
     510      16                                                00010000D     29
     510            -177       1       1                               0D     30
     510      17                                                00010000D     31
     510            -177       1       1                               0D     32
     510      18                                                00010000D     33
     510            -177       1       1                               0D     34
     508      19                                                00010000D     35
     508                       1       1                               0D     36
     508      20                                                00010000D     37
     508                       1       1                               0D     38
     508      21                                                00010000D     39
     508                       2       1                               0D     40
     508      23                                                00010000D     41
     508                       1       1                               0D     42
     508      24                                                00010000D     43
     508                       1       1                               0D     44
     508      25                                                00010000D     45
     508                       1       1                               0D     46
     508      26                                                00010000D     47
     508                       1       1                               0D     48
     508      27                                                00010000D     49
     508                       1       1                               0D     50
     508      28                                                00010000D     51
     508                       1       1                               0D     52
     508      29                                                00010000D     53
     508                       1       1                               0D     54
     508      30                                                00010000D     55
     508                       1       1                               0D     56
     508      31                                                00010000D     57
     508                       1       1                               0D     58
     508      32                                                00010000D     59
     508                       1       1                               0D     60
     508      33                                                00010000D     61
     508                       1       1                               0D     62
     508      34                                                00010000D     63
     508                       1       1                               0D     64
     508      35                                                00010000D     65
     508                       2       1                               0D     66
     126      37                                                00010000D     67
     126       0               5       0                               0D     68
     126      42                                                00010000D     69
     126       0               2       0                               0D     70
     126      44                                                00010000D     71
     126       0               5       0                               0D     72
     126      49                                                00010000D     73
     126       0               2       0                               0D     74
     126      51                                                00010000D     75
     126       0               3       0                               0D     76
     126      54                                                00010000D     77
     126       0               2       0                               0D     78
     126      56                                                00010000D     79
     126       0               3       0                               0D     80
     126      59                                                00010000D     81
     126       0               3       0                               0D     82
     126      62                                                00010000D     83
     126       0               5       0                               0D     84
     126      67                                                00010000D     85
     126       0               3       0                               0D     86
     126      70                                                00010000D     87
     126       0               5       0                               0D     88
     126      75                                                00010000D     89
     126       0               3       0                               0D     90
     126      78                                                00010000D     91
     126       0               5       0                               0D     92
     126      83                                                00010000D     93
     126       0               2       0                               0D     94
     126      85                                                00010000D     95
     126       0               2       0                               0D     96
     126      87                                                00010000D     97
     126       0               2       0                               0D     98
     126      89                                                00010000D     99
     126       0               2       0                               0D    100
     126      91                                                00010000D    101
     126       0               5       0                               0D    102
     126      96                                                00010000D    103
     126       0               2       0                               0D    104
     126      98                                                00010000D    105
     126       0               2       0                               0D    106
     126     100                                                00010000D    107
     126       0               3       0                               0D    108
     126     103                                                00010000D    109
     126       0               2       0                               0D    110
     126     105                                                00010000D    111
     126       0               5       0                               0D    112
     126     110                                                00010000D    113
     126       0               2       0                               0D    114
     126     112                                                00010000D    115
     126       0               5       0                               0D    116
     126     117                                                00010000D    117
     126       0               2       0                               0D    118
     126     119                                                00010000D    119
     126       0               2       0                               0D    120
     126     121                                                00010000D    121
     126       0               2       0                               0D    122
     126     123                                                00010000D    123
     126       0               2       0                               0D    124
     126     125                                                00010000D    125
     126       0               2       0                               0D    126
     126     127                                                00010000D    127
     126       0               2       0                               0D    128
     126     129                                                00010000D    129
     126       0               2       0                               0D    130
     126     131                                                00010000D    131
     126       0               2       0                               0D    132
     126     133                                                00010000D    133
     126       0               2       0                               0D    134
     126     135                                                00010000D    135
     126       0               3       0                               0D    136
     126     138                                                00010000D    137
     126       0               3       0                               0D    138
     128     141                                                00010000D    139
     128       0    -177       6       0                               0D    140
     128     147                                                00010000D    141
     128       0    -177       4       0                               0D    142
     128     151                                                00010000D    143
     128       0    -177       4       0                               0D    144
     128     155                                                00010000D    145
     128       0    -177       6       0                               0D    146
     128     161                                                00010000D    147
     128       0    -177       4       0                               0D    148
     128     165                                                00010000D    149
     128       0    -177       6       0                               0D    150
     128     171                                                00010000D    151
     128       0    -177       6       0                               0D    152
     128     177                                                00010000D    153
     128       0    -177       3       0                               0D    154
     128     180                                                00010000D    155
     128       0    -177       3       0                               0D    156
     128     183                                                00010000D    157
     128       0    -177       3       0                               0D    158
     128     186                                                00010000D    159
     128       0    -177       3       0                               0D    160
     128     189                                                00010000D    161
     128       0    -177       3       0                               0D    162
     128     192                                                00010000D    163
     128       0    -177       4       0                               0D    164
     128     196                                                00010000D    165
     128       0    -177       4       0                               0D    166
     128     200                                                00010000D    167
     128       0    -177       4       0                               0D    168
     502     204                                                00010000D    169
     502                       7       1                               0D    170
     504     211                                                00010001D    171
     504                      10       1                               0D    172
     406     221                                                00000000D    173
     406                       1      15                               0D    174
     406     222                                                00000000D    175
     406                       1      15                               0D    176
     314     223                                                00000200D    177
     314                       2       0                               0D    178
186,3,1,0,0,1,173;                                                     1P      1
514,15,5,1,7,1,9,1,11,1,13,1,15,1,17,1,19,1,21,1,23,1,25,1,27,1,       3P      2
29,1,31,1,33,1;                                                        3P      3
510,139,1,1,35;                                                        5P      4
510,141,1,1,37;                                                        7P      5
510,143,2,1,39,41;                                                     9P      6
510,145,1,1,43;                                                       11P      7
510,147,1,1,45;                                                       13P      8
510,149,1,1,47;                                                       15P      9
510,151,1,1,49;                                                       17P     10
510,153,1,1,51;                                                       19P     11
510,155,1,1,53;                                                       21P     12
510,157,1,1,55;                                                       23P     13
510,159,1,1,57;                                                       25P     14
510,161,1,1,59;                                                       27P     15
510,163,1,1,61;                                                       29P     16
510,165,1,1,63;                                                       31P     17
510,167,1,1,65;                                                       33P     18
508,4,0,171,1,1,0,0,171,2,1,0,0,171,3,1,0,0,171,4,1,0;                35P     19
508,4,0,171,4,0,0,0,171,5,1,0,0,171,6,0,0,0,171,7,0,0;                37P     20
508,8,0,171,3,0,0,0,171,8,0,0,0,171,9,0,0,0,171,10,0,0,0,171,11,      39P     21
0,0,0,171,12,0,0,0,171,13,0,0,0,171,5,0,0;                            39P     22
508,4,0,171,14,1,0,0,171,15,1,0,0,171,16,1,0,0,171,17,1,0;            41P     23
508,4,0,171,18,1,0,0,171,19,1,0,0,171,9,1,0,0,171,20,1,0;             43P     24
508,4,0,171,19,0,0,0,171,21,0,0,0,171,22,0,0,0,171,10,1,0;            45P     25
508,4,0,171,23,1,0,0,171,24,1,0,0,171,11,1,0,0,171,22,1,0;            47P     26
508,4,0,171,25,1,0,0,171,6,1,0,0,171,13,1,0,0,171,26,1,0;             49P     27
508,4,0,171,14,0,0,0,171,27,1,0,0,171,28,1,0,0,171,29,0,0;            51P     28
508,4,0,171,17,0,0,0,171,30,1,0,0,171,31,1,0,0,171,27,0,0;            53P     29
508,4,0,171,16,0,0,0,171,32,1,0,0,171,33,1,0,0,171,30,0,0;            55P     30
508,4,0,171,15,0,0,0,171,29,1,0,0,171,34,1,0,0,171,32,0,0;            57P     31
508,4,0,171,34,0,0,0,171,28,0,0,0,171,31,0,0,0,171,33,0,0;            59P     32
508,4,0,171,24,0,0,0,171,35,0,0,0,171,26,0,0,0,171,12,1,0;            61P     33
508,4,0,171,2,0,0,0,171,36,0,0,0,171,20,0,0,0,171,8,1,0;              63P     34
508,8,0,171,1,0,0,0,171,7,1,0,0,171,25,0,0,0,171,35,1,0,0,171,        65P     35
23,0,0,0,171,21,1,0,0,171,18,0,0,0,171,36,1,0;                        65P     36
126,2,2,0,0,0,0,-0.785398163397448,-0.785398163397448,                67P     37
-0.785398163397448,0.785398163397448,0.785398163397448,               67P     38
0.785398163397448,1.,0.707106781186536,1.,169.8,177.8,12.192,         67P     39
177.8,177.8,12.192,177.8,169.8,12.192,-0.785398163397448,             67P     40
0.785398163397448,0.,0.,0.;                                           67P     41
126,1,1,0,0,1,0,-1.2192,-1.2192,0.,0.,1.,1.,177.8,169.8,12.192,       69P     42
177.8,169.8,0.,-1.2192,0.,0.,0.,0.;                                   69P     43
126,2,2,0,0,0,0,-0.785398163397448,-0.785398163397448,                71P     44
-0.785398163397448,0.785398163397448,0.785398163397448,               71P     45
0.785398163397448,1.,0.707106781186536,1.,177.8,169.8,0.,177.8,       71P     46
177.8,0.,169.8,177.8,0.,-0.785398163397448,0.785398163397448,0.,      71P     47
0.,0.;                                                                71P     48
126,1,1,0,0,1,0,0.,0.,1.2192,1.2192,1.,1.,169.8,177.8,0.,169.8,       73P     49
177.8,12.192,0.,1.2192,0.,0.,0.;                                      73P     50
126,1,1,0,0,1,0,0.800000000000004,0.800000000000004,34.76,34.76,      75P     51
1.,1.,169.8,177.8,0.,-169.8,177.8,0.,0.800000000000004,34.76,0.,      75P     52
0.,0.;                                                                75P     53
126,1,1,0,0,1,0,-1.2192,-1.2192,0.,0.,1.,1.,-169.8,177.8,12.192,      77P     54
-169.8,177.8,0.,-1.2192,0.,0.,0.,0.;                                  77P     55
126,1,1,0,0,1,0,0.800000000000004,0.800000000000004,34.76,34.76,      79P     56
1.,1.,169.8,177.8,12.192,-169.8,177.8,12.192,0.800000000000004,       79P     57
34.76,0.,0.,0.;                                                       79P     58
126,1,1,0,0,1,0,0.799999999999997,0.799999999999997,34.76,34.76,      81P     59
1.,1.,177.8,-169.8,0.,177.8,169.8,0.,0.799999999999997,34.76,0.,      81P     60
0.,0.;                                                                81P     61
126,2,2,0,0,0,0,-0.785398163397444,-0.785398163397444,                83P     62
-0.785398163397444,0.785398163397448,0.785398163397448,               83P     63
0.785398163397448,1.,0.70710678118655,1.,169.8,-177.8,0.,177.8,       83P     64
-177.8,0.,177.8,-169.8,0.,-0.785398163397444,0.785398163397448,       83P     65
0.,0.,0.;                                                             83P     66
126,1,1,0,0,1,0,0.800000000000004,0.800000000000004,34.76,34.76,      85P     67
1.,1.,-169.8,-177.8,0.,169.8,-177.8,0.,0.800000000000004,34.76,       85P     68
0.,0.,0.;                                                             85P     69
126,2,2,0,0,0,0,-0.785398163397444,-0.785398163397444,                87P     70
-0.785398163397444,0.785398163397448,0.785398163397448,               87P     71
0.785398163397448,1.,0.70710678118655,1.,-177.8,-169.8,0.,            87P     72
-177.8,-177.8,0.,-169.8,-177.8,0.,-0.785398163397444,                 87P     73
0.785398163397448,0.,0.,0.;                                           87P     74
126,1,1,0,0,1,0,0.799999999999997,0.799999999999997,34.76,34.76,      89P     75
1.,1.,-177.8,169.8,0.,-177.8,-169.8,0.,0.799999999999997,34.76,       89P     76
0.,0.,0.;                                                             89P     77
126,2,2,0,0,0,0,-0.785398163397448,-0.785398163397448,                91P     78
-0.785398163397448,0.785398163397448,0.785398163397448,               91P     79
0.785398163397448,1.,0.707106781186536,1.,-169.8,177.8,0.,            91P     80
-177.8,177.8,0.,-177.8,169.8,0.,-0.785398163397448,                   91P     81
0.785398163397448,0.,0.,0.;                                           91P     82
126,1,1,0,0,1,0,-3.875,-3.875,11.625,11.625,1.,1.,-77.5,77.5,0.,      93P     83
-77.5,-77.5,0.,-3.875,11.625,0.,0.,0.;                                93P     84
126,1,1,0,0,1,0,-3.875,-3.875,11.625,11.625,1.,1.,-77.5,-77.5,        95P     85
0.,77.5,-77.5,0.,-3.875,11.625,0.,0.,0.;                              95P     86
126,1,1,0,0,1,0,-3.875,-3.875,11.625,11.625,1.,1.,77.5,-77.5,0.,      97P     87
77.5,77.5,0.,-3.875,11.625,0.,0.,0.;                                  97P     88
126,1,1,0,0,1,0,-3.875,-3.875,11.625,11.625,1.,1.,77.5,77.5,0.,       99P     89
-77.5,77.5,0.,-3.875,11.625,0.,0.,0.;                                 99P     90
126,2,2,0,0,0,0,-0.785398163397448,-0.785398163397448,               101P     91
-0.785398163397448,0.785398163397444,0.785398163397444,              101P     92
0.785398163397444,1.,0.70710678118655,1.,177.8,-169.8,12.192,        101P     93
177.8,-177.8,12.192,169.8,-177.8,12.192,-0.785398163397448,          101P     94
0.785398163397444,0.,0.,0.;                                          101P     95
126,1,1,0,0,1,0,-1.2192,-1.2192,0.,0.,1.,1.,169.8,-177.8,12.192,     103P     96
169.8,-177.8,0.,-1.2192,0.,0.,0.,0.;                                 103P     97
126,1,1,0,0,1,0,0.,0.,1.2192,1.2192,1.,1.,177.8,-169.8,0.,177.8,     105P     98
-169.8,12.192,0.,1.2192,0.,0.,0.;                                    105P     99
126,1,1,0,0,1,0,0.800000000000004,0.800000000000004,34.76,34.76,     107P    100
1.,1.,-169.8,-177.8,12.192,169.8,-177.8,12.192,                      107P    101
0.800000000000004,34.76,0.,0.,0.;                                    107P    102
126,1,1,0,0,1,0,0.,0.,1.2192,1.2192,1.,1.,-169.8,-177.8,0.,          109P    103
-169.8,-177.8,12.192,0.,1.2192,0.,0.,0.;                             109P    104
126,2,2,0,0,0,0,-0.785398163397448,-0.785398163397448,               111P    105
-0.785398163397448,0.785398163397444,0.785398163397444,              111P    106
0.785398163397444,1.,0.70710678118655,1.,-169.8,-177.8,12.192,       111P    107
-177.8,-177.8,12.192,-177.8,-169.8,12.192,-0.785398163397448,        111P    108
0.785398163397444,0.,0.,0.;                                          111P    109
126,1,1,0,0,1,0,-1.2192,-1.2192,0.,0.,1.,1.,-177.8,-169.8,           113P    110
12.192,-177.8,-169.8,0.,-1.2192,0.,0.,0.,0.;                         113P    111
126,2,2,0,0,0,0,-0.785398163397448,-0.785398163397448,               115P    112
-0.785398163397448,0.785398163397448,0.785398163397448,              115P    113
0.785398163397448,1.,0.707106781186536,1.,-177.8,169.8,12.192,       115P    114
-177.8,177.8,12.192,-169.8,177.8,12.192,-0.785398163397448,          115P    115
0.785398163397448,0.,0.,0.;                                          115P    116
126,1,1,0,0,1,0,0.,0.,1.2192,1.2192,1.,1.,-177.8,169.8,0.,           117P    117
-177.8,169.8,12.192,0.,1.2192,0.,0.,0.;                              117P    118
126,1,1,0,0,1,0,0.,0.,0.3,0.3,1.,1.,-77.5,77.5,0.,-77.5,77.5,3.,     119P    119
0.,0.3,0.,0.,0.;                                                     119P    120
126,1,1,0,0,1,0,-15.5,-15.5,0.,0.,1.,1.,-77.5,77.5,3.,-77.5,         121P    121
-77.5,3.,-15.5,0.,0.,0.,0.;                                          121P    122
126,1,1,0,0,1,0,0.,0.,0.3,0.3,1.,1.,-77.5,-77.5,0.,-77.5,-77.5,      123P    123
3.,0.,0.3,0.,0.,0.;                                                  123P    124
126,1,1,0,0,1,0,0.,0.,0.3,0.3,1.,1.,77.5,77.5,0.,77.5,77.5,3.,       125P    125
0.,0.3,0.,0.,0.;                                                     125P    126
126,1,1,0,0,1,0,-15.5,-15.5,0.,0.,1.,1.,77.5,77.5,3.,-77.5,77.5,     127P    127
3.,-15.5,0.,0.,0.,0.;                                                127P    128
126,1,1,0,0,1,0,0.,0.,0.3,0.3,1.,1.,77.5,-77.5,0.,77.5,-77.5,3.,     129P    129
0.,0.3,0.,0.,0.;                                                     129P    130
126,1,1,0,0,1,0,-15.5,-15.5,0.,0.,1.,1.,77.5,-77.5,3.,77.5,77.5,     131P    131
3.,-15.5,0.,0.,0.,0.;                                                131P    132
126,1,1,0,0,1,0,-15.5,-15.5,0.,0.,1.,1.,-77.5,-77.5,3.,77.5,         133P    133
-77.5,3.,-15.5,0.,0.,0.,0.;                                          133P    134
126,1,1,0,0,1,0,0.799999999999997,0.799999999999997,34.76,34.76,     135P    135
1.,1.,-177.8,169.8,12.192,-177.8,-169.8,12.192,                      135P    136
0.799999999999997,34.76,0.,0.,0.;                                    135P    137
126,1,1,0,0,1,0,0.799999999999997,0.799999999999997,34.76,34.76,     137P    138
1.,1.,177.8,-169.8,12.192,177.8,169.8,12.192,0.799999999999997,      137P    139
34.76,0.,0.,0.;                                                      137P    140
128,1,2,1,2,0,0,0,0,0,0.,0.,1.524,1.524,-0.785398163397448,          139P    141
-0.785398163397448,-0.785398163397448,0.785398163397448,             139P    142
0.785398163397448,0.785398163397448,1.,1.,0.707106781186548,         139P    143
0.707106781186548,1.,1.,177.8,169.8,12.192,177.8,169.8,0.,177.8,     139P    144
177.8,12.192,177.8,177.8,0.,169.8,177.8,12.192,169.8,177.8,0.,       139P    145
0.,1.524,-0.785398163397448,0.785398163397448;                       139P    146
128,1,1,1,1,0,0,1,0,0,0.799000000000004,0.799000000000004,           141P    147
34.761,34.761,-0.001,-0.001,1.2202,1.2202,1.,1.,1.,1.,169.81,        141P    148
177.8,-0.01,-169.81,177.8,-0.01,169.81,177.8,12.202,-169.81,         141P    149
177.8,12.202,0.799000000000004,34.761,-0.001,1.2202;                 141P    150
128,1,1,1,1,0,0,1,0,0,-17.781,-17.781,17.781,17.781,-17.781,         143P    151
-17.781,17.781,17.781,1.,1.,1.,1.,177.81,-177.81,0.,-177.81,         143P    152
-177.81,0.,177.81,177.81,0.,-177.81,177.81,0.,-17.781,17.781,        143P    153
-17.781,17.781;                                                      143P    154
128,1,2,1,2,0,0,0,0,0,0.,0.,1.524,1.524,-0.785398163397448,          145P    155
-0.785398163397448,-0.785398163397448,0.785398163397448,             145P    156
0.785398163397448,0.785398163397448,1.,1.,0.707106781186548,         145P    157
0.707106781186548,1.,1.,169.8,-177.8,12.192,169.8,-177.8,0.,         145P    158
177.8,-177.8,12.192,177.8,-177.8,0.,177.8,-169.8,12.192,177.8,       145P    159
-169.8,0.,0.,1.524,-0.785398163397448,0.785398163397448;             145P    160
128,1,1,1,1,0,0,1,0,0,0.799000000000004,0.799000000000004,           147P    161
34.761,34.761,-0.001,-0.001,1.2202,1.2202,1.,1.,1.,1.,-169.81,       147P    162
-177.8,-0.01,169.81,-177.8,-0.01,-169.81,-177.8,12.202,169.81,       147P    163
-177.8,12.202,0.799000000000004,34.761,-0.001,1.2202;                147P    164
128,1,2,1,2,0,0,0,0,0,0.,0.,1.524,1.524,-0.785398163397448,          149P    165
-0.785398163397448,-0.785398163397448,0.785398163397448,             149P    166
0.785398163397448,0.785398163397448,1.,1.,0.707106781186548,         149P    167
0.707106781186548,1.,1.,-177.8,-169.8,12.192,-177.8,-169.8,0.,       149P    168
-177.8,-177.8,12.192,-177.8,-177.8,0.,-169.8,-177.8,12.192,          149P    169
-169.8,-177.8,0.,0.,1.524,-0.785398163397448,0.785398163397448;      149P    170
128,1,2,1,2,0,0,0,0,0,0.,0.,1.524,1.524,-0.785398163397448,          151P    171
-0.785398163397448,-0.785398163397448,0.785398163397448,             151P    172
0.785398163397448,0.785398163397448,1.,1.,0.707106781186548,         151P    173
0.707106781186548,1.,1.,-169.8,177.8,12.192,-169.8,177.8,0.,         151P    174
-177.8,177.8,12.192,-177.8,177.8,0.,-177.8,169.8,12.192,-177.8,      151P    175
169.8,0.,0.,1.524,-0.785398163397448,0.785398163397448;              151P    176
128,1,1,1,1,0,0,1,0,0,-0.001,-0.001,15.501,15.501,-0.001,-0.001,     153P    177
0.301,0.301,1.,1.,1.,1.,-77.5,-77.51,-0.01,-77.5,77.51,-0.01,        153P    178
-77.5,-77.51,3.01,-77.5,77.51,3.01,-0.001,15.501,-0.001,0.301;       153P    179
128,1,1,1,1,0,0,1,0,0,-0.001,-0.001,15.501,15.501,-0.001,-0.001,     155P    180
0.301,0.301,1.,1.,1.,1.,-77.51,77.5,-0.01,77.51,77.5,-0.01,          155P    181
-77.51,77.5,3.01,77.51,77.5,3.01,-0.001,15.501,-0.001,0.301;         155P    182
128,1,1,1,1,0,0,1,0,0,-0.001,-0.001,15.501,15.501,-0.001,-0.001,     157P    183
0.301,0.301,1.,1.,1.,1.,77.5,77.51,-0.01,77.5,-77.51,-0.01,77.5,     157P    184
77.51,3.01,77.5,-77.51,3.01,-0.001,15.501,-0.001,0.301;              157P    185
128,1,1,1,1,0,0,1,0,0,-0.001,-0.001,15.501,15.501,-0.001,-0.001,     159P    186
0.301,0.301,1.,1.,1.,1.,77.51,-77.5,-0.01,-77.51,-77.5,-0.01,        159P    187
77.51,-77.5,3.01,-77.51,-77.5,3.01,-0.001,15.501,-0.001,0.301;       159P    188
128,1,1,1,1,0,0,1,0,0,-7.751,-7.751,7.751,7.751,-7.751,-7.751,       161P    189
7.751,7.751,1.,1.,1.,1.,77.51,-77.51,3.,-77.51,-77.51,3.,77.51,      161P    190
77.51,3.,-77.51,77.51,3.,-7.751,7.751,-7.751,7.751;                  161P    191
128,1,1,1,1,0,0,1,0,0,0.798999999999997,0.798999999999997,           163P    192
34.761,34.761,-0.001,-0.001,1.2202,1.2202,1.,1.,1.,1.,-177.8,        163P    193
169.81,-0.01,-177.8,-169.81,-0.01,-177.8,169.81,12.202,-177.8,       163P    194
-169.81,12.202,0.798999999999997,34.761,-0.001,1.2202;               163P    195
128,1,1,1,1,0,0,1,0,0,0.798999999999997,0.798999999999997,           165P    196
34.761,34.761,-0.001,-0.001,1.2202,1.2202,1.,1.,1.,1.,177.8,         165P    197
-169.81,-0.01,177.8,169.81,-0.01,177.8,-169.81,12.202,177.8,         165P    198
169.81,12.202,0.798999999999997,34.761,-0.001,1.2202;                165P    199
128,1,1,1,1,0,0,1,0,0,-17.781,-17.781,17.781,17.781,-17.781,         167P    200
-17.781,17.781,17.781,1.,1.,1.,1.,-177.81,-177.81,12.192,177.81,     167P    201
-177.81,12.192,-177.81,177.81,12.192,177.81,177.81,12.192,           167P    202
-17.781,17.781,-17.781,17.781;                                       167P    203
502,24,169.8,177.8,12.192,177.8,169.8,12.192,177.8,169.8,0.,         169P    204
169.8,177.8,0.,-169.8,177.8,0.,-169.8,177.8,12.192,177.8,-169.8,     169P    205
0.,169.8,-177.8,0.,-169.8,-177.8,0.,-177.8,-169.8,0.,-177.8,         169P    206
169.8,0.,-77.5,77.5,0.,-77.5,-77.5,0.,77.5,-77.5,0.,77.5,77.5,       169P    207
0.,177.8,-169.8,12.192,169.8,-177.8,12.192,-169.8,-177.8,12.192,     169P    208
-177.8,-169.8,12.192,-177.8,169.8,12.192,-77.5,77.5,3.,-77.5,        169P    209
-77.5,3.,77.5,77.5,3.,77.5,-77.5,3.;                                 169P    210
504,36,67,169,1,169,2,69,169,2,169,3,71,169,3,169,4,73,169,4,        171P    211
169,1,75,169,4,169,5,77,169,6,169,5,79,169,1,169,6,81,169,7,169,     171P    212
3,83,169,8,169,7,85,169,9,169,8,87,169,10,169,9,89,169,11,169,       171P    213
10,91,169,5,169,11,93,169,12,169,13,95,169,13,169,14,97,169,14,      171P    214
169,15,99,169,15,169,12,101,169,16,169,17,103,169,17,169,8,105,      171P    215
169,7,169,16,107,169,18,169,17,109,169,9,169,18,111,169,18,169,      171P    216
19,113,169,19,169,10,115,169,20,169,6,117,169,11,169,20,119,169,     171P    217
12,169,21,121,169,21,169,22,123,169,13,169,22,125,169,15,169,23,     171P    218
127,169,23,169,21,129,169,14,169,24,131,169,24,169,23,133,169,       171P    219
22,169,24,135,169,20,169,19,137,169,16,169,2;                        171P    220
406,1,5HBody1;                                                       173P    221
406,1,5HBody2;                                                       175P    222
314,62.7450980392157,62.7450980392157,62.7450980392157,13HSteel      177P    223
- Satin;                                                             177P    224
S      1G      2D    178P    224                                        T      1
